<svg xmlns="http://www.w3.org/2000/svg" width="26" height="26" viewBox="0 0 26 26"><path d="M13 0a13 13 0 000 26 13 13 0 000-26zm0 24.6c-1.3 0-2.8-2.8-3.4-7h6.8c-.6 4.2-2 7-3.4 7zm-3.6-8.4a32.6 32.6 0 010-6.4h7.2a29.8 29.8 0 01.1 3.2 29.8 29.8 0 01-.1 3.2zm-8-3.2A11.8 11.8 0 012 9.8H8a34.4 34.4 0 000 6.4H1.9a11.8 11.8 0 01-.5-3.2zM13 1.4c1.3 0 2.8 2.8 3.4 7H9.6c.6-4.2 2-7 3.4-7zm5 8.4h6.1a11.5 11.5 0 010 6.4H18a34.4 34.4 0 000-6.4zm5.6-1.4h-5.8a16.7 16.7 0 00-2.1-6.7 11.6 11.6 0 017.9 6.7zM10.3 1.7a16.7 16.7 0 00-2.1 6.7H2.4a11.6 11.6 0 018-6.7zm-7.9 16h5.8a16.7 16.7 0 002.1 6.6 11.6 11.6 0 01-7.9-6.7zm13.3 6.6a16.7 16.7 0 002.1-6.7h5.8a11.6 11.6 0 01-8 6.7z"/></svg>