<?xml version="1.0" standalone="no"?>
<!DOCTYPE svg PUBLIC "-//W3C//DTD SVG 20010904//EN"
 "http://www.w3.org/TR/2001/REC-SVG-20010904/DTD/svg10.dtd">
<svg version="1.0" xmlns="http://www.w3.org/2000/svg"
 width="260.000000pt" height="260.000000pt" viewBox="0 0 260.000000 260.000000"
 preserveAspectRatio="xMidYMid meet">
<metadata>
Created by potrace 1.11, written by Peter Selinger 2001-2013
</metadata>
<g transform="translate(0.000000,260.000000) scale(0.100000,-0.100000)"
fill="#000000" stroke="none">
<path d="M131 2574 c-58 -29 -104 -84 -122 -143 -7 -24 -9 -401 -7 -1152 l3
-1116 30 -49 c19 -30 49 -60 79 -79 l49 -30 1137 0 1137 0 49 30 c30 19 60 49
79 79 l30 49 0 1137 0 1137 -30 49 c-19 30 -49 60 -79 79 l-49 30 -1126 3
-1127 2 -53 -26z"/>
</g>
</svg>
