<svg xmlns="http://www.w3.org/2000/svg" xmlns:xlink="http://www.w3.org/1999/xlink" style="display:none"><symbol id="arrow-circle-left-fill-icon"><path d="M13 0a13 13 0 109.19 3.81A13 13 0 0013 0zm5 14h-7.59L13 16.54a1 1 0 01.22.32 1 1 0 01.07.38 1.07 1.07 0 01-.07.39 1.07 1.07 0 01-.54.54 1.07 1.07 0 01-.39.07 1 1 0 01-.38-.07 1 1 0 01-.32-.22l-4.25-4.24a1 1 0 010-1.42l4.25-4.24a1 1 0 01.7-.29 1 1 0 011 1 1 1 0 01-.29.7L10.41 12H18a1 1 0 110 2z"/></symbol><symbol id="arrow-circle-left-icon"><path d="M13 26a13 13 0 1113-13 13 13 0 01-13 13zm0-24a11 11 0 1011 11A11 11 0 0013 2z"/><path d="M18 12h-7.59L13 9.46a1 1 0 00-1.41-1.41l-4.25 4.24a1 1 0 00-.21.32 1 1 0 000 .78 1 1 0 00.21.32l4.2 4.29a1 1 0 00.7.29A1 1 0 0013 18a1 1 0 000-1.41L10.41 14H18a1 1 0 000-2z"/></symbol><symbol id="arrow-circle-right-fill-icon"><path d="M13 0a13 13 0 109.19 3.81A13 13 0 0013 0zm5.92 13.38a1.15 1.15 0 01-.21.33L14.46 18a1 1 0 01-.7.29 1 1 0 01-1-1 1 1 0 01.29-.7L15.59 14H8a1 1 0 110-2h7.59l-2.54-2.54a1 1 0 01-.29-.7 1 1 0 011-1 1 1 0 01.7.29l4.25 4.24a1 1 0 01.27.51 1 1 0 01-.06.58z"/></symbol><symbol id="arrow-circle-right-icon"><path d="M13 26a13 13 0 1113-13 13 13 0 01-13 13zm0-24a11 11 0 1011 11A11 11 0 0013 2z"/><path d="M18.92 13.38a1 1 0 000-.76 1 1 0 00-.21-.33l-4.25-4.24a1 1 0 00-1.41 1.41L15.59 12H8a1 1 0 000 2h7.59l-2.54 2.54a1 1 0 000 1.41 1 1 0 00.71.29 1 1 0 00.7-.29l4.25-4.24a1 1 0 00.21-.33z"/></symbol><symbol id="arrow-down-icon"><path d="M.41 14.15a1.36 1.36 0 000 2L6 21.6a1.43 1.43 0 002 0l5.6-5.5a1.36 1.36 0 000-2 1.43 1.43 0 00-2 0l-3.2 3.21V1.38a1.4 1.4 0 00-2.8 0v15.93l-3.21-3.16a1.43 1.43 0 00-1.98 0z"/></symbol><symbol id="arrow-left-icon"><path d="M7.85 13.59a1.36 1.36 0 01-1.95 0L.4 8a1.43 1.43 0 010-2L5.9.4a1.36 1.36 0 011.95 0 1.43 1.43 0 010 2L4.69 5.6h15.94a1.4 1.4 0 010 2.8H4.69l3.16 3.21a1.43 1.43 0 010 1.98z"/></symbol><symbol id="arrow-right-icon"><path d="M14.15 13.59a1.36 1.36 0 002 0L21.6 8a1.43 1.43 0 000-2L16.1.4a1.36 1.36 0 00-2 0 1.43 1.43 0 000 2l3.16 3.21H1.38a1.4 1.4 0 000 2.8h15.93l-3.16 3.21a1.43 1.43 0 000 1.97z"/></symbol><symbol id="arrow-square-right-icon"><path d="M2 24h20a2 2 0 002-2V2a2 2 0 00-2-2H2a2 2 0 00-2 2v20a2 2 0 002 2zm10.05-7a1 1 0 01-.22-.32 1.07 1.07 0 01-.07-.39 1 1 0 01.07-.38 1 1 0 01.22-.32L14.59 13H7a1 1 0 01-.71-.29A1.05 1.05 0 016 12a1 1 0 01.29-.71A1 1 0 017 11h7.59l-2.54-2.54a1 1 0 01-.29-.7 1 1 0 011-1 1 1 0 01.7.29l4.25 4.24A1 1 0 0118 12a1.05 1.05 0 01-.29.71L13.46 17a1 1 0 01-.32.22 1.07 1.07 0 01-.76 0 1 1 0 01-.33-.22z"/></symbol><symbol id="arrow-up-icon"><path d="M13.59 7.85a1.36 1.36 0 000-1.95L8 .4a1.43 1.43 0 00-2 0L.4 5.9a1.36 1.36 0 000 1.95 1.43 1.43 0 002 0l3.2-3.16v15.94a1.4 1.4 0 002.8 0V4.69l3.21 3.16a1.43 1.43 0 001.98 0z"/></symbol><symbol id="breadcrumbs-divider-icon"><path d="M1 22a1 1 0 01-.71-.29 1 1 0 010-1.42L9.59 11 .29 1.71A1.004 1.004 0 011.71.29l10 10a1 1 0 010 1.42l-10 10A1 1 0 011 22z"/><path d="M11 22a1 1 0 01-.71-.29 1 1 0 010-1.42l9.3-9.29-9.3-9.29A1.004 1.004 0 0111.71.29l10 10a1 1 0 010 1.42l-10 10A1 1 0 0111 22z"/></symbol><symbol id="burger-icon"><path d="M23.5 11h-22a1.5 1.5 0 010-3h22a1.5 1.5 0 010 3zM23.5 3h-22a1.5 1.5 0 010-3h22a1.5 1.5 0 010 3zM23.5 19h-22a1.5 1.5 0 010-3h22a1.5 1.5 0 010 3z"/></symbol><symbol id="caret-down-icon"><path d="M11 12a1 1 0 01-.71-.29l-10-10A1.004 1.004 0 011.71.29L11 9.59l9.29-9.3a1.004 1.004 0 011.42 1.42l-10 10A1 1 0 0111 12z"/></symbol><symbol id="check-square-fill-icon"><path d="M22 0H2a2 2 0 00-2 2v20a2 2 0 002 2h20a2 2 0 002-2V2a2 2 0 00-2-2zm-3.81 9.72l-7.33 7a1 1 0 01-.69.28 1 1 0 01-.69-.28l-3.67-3.5a1 1 0 01-.23-.32 1 1 0 010-.76.89.89 0 01.21-.33 1 1 0 01.32-.23 1 1 0 01.76 0 1 1 0 01.33.21l3 2.84 6.64-6.34a1 1 0 01.33-.21 1 1 0 01.76 0 1 1 0 01.32.23.89.89 0 01.21.33 1 1 0 010 .76 1 1 0 01-.23.32z"/></symbol><symbol id="check-square-outline-icon"><path d="M10.17 17a1 1 0 01-.69-.28l-3.67-3.5a1 1 0 011.38-1.44l3 2.84 6.64-6.34a1 1 0 111.38 1.44l-7.33 7a1 1 0 01-.71.28z"/><path d="M22 24H2a2 2 0 01-2-2V2a2 2 0 012-2h20a2 2 0 012 2v20a2 2 0 01-2 2zM2 2v20h20V2z"/></symbol><symbol id="close-icon"><path d="M13 26a13 13 0 1113-13 13 13 0 01-13 13zm0-24a11 11 0 1011 11A11 11 0 0013 2z"/><path d="M14.41 13l3.3-3.29a1.004 1.004 0 00-1.42-1.42L13 11.59l-3.29-3.3a1.004 1.004 0 00-1.42 1.42l3.3 3.29-3.3 3.29a1 1 0 000 1.42 1 1 0 001.42 0l3.29-3.3 3.29 3.3a1 1 0 001.42 0 1 1 0 000-1.42z"/></symbol><symbol id="facebook-icon"><path d="M13 0a13.01 13.01 0 00-1 26V16H9a1 1 0 110-2h3v-3a4 4 0 014-4h2a1 1 0 110 2h-2a2 2 0 00-2 2v3h3a1 1 0 110 2h-3v10a13.01 13.01 0 00-1-26z"/></symbol><symbol id="file-arrow-down-icon"><path d="M21.92 7.62a.93.93 0 00-.21-.33l-7-7h-.08a1 1 0 00-.24-.16A1 1 0 0014 0H2a2 2 0 00-2 2v22a2 2 0 002 2h18a2 2 0 00.76-.15 2 2 0 00.66-.44A2 2 0 0022 24V8a1 1 0 00-.08-.38zM15 3.41L18.59 7H15zM2 24V2h11v6a1 1 0 001 1h6v15z"/><path d="M15.21 15.79a1 1 0 00-1.42 0L12 17.59V12a1 1 0 00-2 0v5.59l-1.79-1.8a1.004 1.004 0 00-1.42 1.42l3.5 3.5a1 1 0 00.33.21.94.94 0 00.76 0 1 1 0 00.33-.21l3.5-3.5a1 1 0 000-1.42z"/></symbol><symbol id="globe-simple-icon"><path d="M13 0a13 13 0 1013 13A13 13 0 0013 0zm11 12h-5c-.14-4-1.07-7.34-2.48-9.42A11 11 0 0124 12zM13 23.68c-1.78 0-3.76-4.08-4-9.68h8c-.24 5.6-2.22 9.68-4 9.68zM9 12c.22-5.6 2.2-9.68 4-9.68S16.76 6.4 17 12zm.48-9.42C8.09 4.66 7.16 8 7 12H2a11 11 0 017.5-9.42zM2.05 14h5c.14 4 1.07 7.34 2.48 9.42A11 11 0 012.05 14zm14.45 9.42C17.91 21.34 18.84 18 19 14h5a11 11 0 01-7.5 9.42z"/></symbol><symbol id="hand-pointing-icon"><path d="M20.91 9.5a3.47 3.47 0 00-1.83.52 3.57 3.57 0 00-.81-1.11 3.36 3.36 0 00-1.18-.7A3.44 3.44 0 0015.74 8a3.63 3.63 0 00-1.33.34V3.5a3.52 3.52 0 00-3.5-3.5 3.5 3.5 0 00-3.5 3.5v11.43l-.88-1.52a3.515 3.515 0 00-6.12 3.46c4.1 8.55 6.8 12.13 13 12.13a11 11 0 0011-11v-5a3.52 3.52 0 00-3.5-3.5zm1.5 8.5a9 9 0 01-9 9 7.57 7.57 0 01-5.87-2.28c-1.56-1.57-3.13-4.1-5.3-8.72a.25.25 0 000-.07 1.5 1.5 0 01.55-2.05 1.52 1.52 0 011.14-.15 1.49 1.49 0 01.91.7l2.74 4.75a1 1 0 00.49.42.94.94 0 00.64 0 1 1 0 00.53-.35 1 1 0 00.21-.61V3.5a1.5 1.5 0 013 0V12a1 1 0 001 1 1.05 1.05 0 00.71-.29 1 1 0 00.25-.71v-.5a1.5 1.5 0 013 0V13a1 1 0 001 1 1.05 1.05 0 00.71-.29 1 1 0 00.29-.71 1.5 1.5 0 013 0z"/></symbol><symbol id="home-icon"><path d="M22 24.63h-6a2 2 0 01-2-2v-6h-4v6a2 2 0 01-2 2H2a2 2 0 01-.76-.15 1.83 1.83 0 01-.65-.44 1.88 1.88 0 01-.44-.64 2.07 2.07 0 01-.15-.77V11.07a2.06 2.06 0 01.17-.81 2.11 2.11 0 01.48-.63l10-9.09a2.06 2.06 0 012.7 0l10 9.09a2.16 2.16 0 01.48.68 2 2 0 01.17.8v11.52a2 2 0 01-.15.76 2.07 2.07 0 01-1.09 1.09 1.91 1.91 0 01-.76.15zm-7-2h7V11.07L12 1.98 2 11.07v11.56h6v-6a2 2 0 012-2h4a2 2 0 012 2v6z"/></symbol><symbol id="Info-icon"><path d="M13 26a13 13 0 1113-13 13 13 0 01-13 13zm0-24a11 11 0 1011 11A11 11 0 0013 2z"/><path d="M14 20h-1a1 1 0 01-1-1v-6a1 1 0 010-2h1a1 1 0 011 1v6a1 1 0 010 2zM13 9a1.5 1.5 0 10-1.5-1.5A1.5 1.5 0 0013 9z"/></symbol><symbol id="instagram-icon"><path d="M12.5 16.5a4 4 0 10-4-4 4 4 0 004 4z"/><path d="M18 0H7a7 7 0 00-7 7v11a7 7 0 007 7h11a7 7 0 007-7V7a7 7 0 00-7-7zm-5.5 18.5a6 6 0 114.24-1.76 6 6 0 01-4.24 1.76zm6.5-11a1.5 1.5 0 01-.83-.25 1.55 1.55 0 01-.56-.68 1.49 1.49 0 01-.11-.86 1.49 1.49 0 011.21-1.21 1.49 1.49 0 01.86.08 1.55 1.55 0 01.68.56A1.5 1.5 0 0119 7.5z"/></symbol><symbol id="map-pin-icon"><path d="M11 0A11 11 0 000 11c0 9.41 10 16.52 10.43 16.82a1 1 0 001.14 0C12 27.52 22 20.41 22 11A11 11 0 0011 0zm0 7a4 4 0 012.22.67 4.07 4.07 0 011.48 1.8 4 4 0 01-5.23 5.23A4 4 0 017 11a3.81 3.81 0 01.31-1.53 3.93 3.93 0 01.86-1.3 4.12 4.12 0 011.3-.87A4 4 0 0111 7z"/></symbol><symbol id="map-trifold-icon"><path d="M25.62 2.2a1 1 0 00-.86-.21l-7.64 1.94L9.45.1a.72.72 0 00-.27-.11h-.06a1.15 1.15 0 00-.32 0l-8 2a1 1 0 00-.76 1v18a1 1 0 00.39.79 1 1 0 00.61.21 1 1 0 00.25 0l7.59-1.94 7.67 3.83h.05a1 1 0 00.39.09 1 1 0 00.24 0l8-2a1 1 0 00.75-1V2.99a1 1 0 00-.36-.79zM2 3.77l6-1.5v15.94l-6 1.5zm14 17.6l-6-3V2.61l6 3zm8-1.16l-6 1.5V5.77l6-1.5z"/></symbol><symbol id="twitter-icon"><path d="M29.55 3.28a1 1 0 00-.5-.35 1.09 1.09 0 00-.62 0 14.91 14.91 0 01-3.79.76A6 6 0 0018 1.42a6.08 6.08 0 00-3 2.1 6 6 0 00-1.25 3.46 15 15 0 01-5.45-2.3A14.86 14.86 0 014.17.45a1.09 1.09 0 00-.42-.37 1 1 0 00-.56-.07 1 1 0 00-.53.27 1 1 0 00-.29.48 17 17 0 005.6 17.7 15 15 0 01-7 1.85 1 1 0 00-.6.21 1 1 0 00-.35.55 1 1 0 00.05.64 1 1 0 00.43.47A17 17 0 0025.75 8.39a16.83 16.83 0 003.86-3.95 1 1 0 00.14-.59 1 1 0 00-.2-.57z"/></symbol><symbol id="upload-icon"><path d="M19 5.54L13.71.29a1.26 1.26 0 00-.32-.21 1 1 0 00-1.1.21L7 5.54A1 1 0 007 7a1 1 0 001.42 0L12 3.41V15a1 1 0 002 0V3.41L17.54 7A1.032 1.032 0 1019 5.54z"/><path d="M24 24H2a2 2 0 01-2-2v-9a1 1 0 012 0v9h22v-9a1 1 0 012 0v9a2 2 0 01-2 2z"/></symbol><symbol id="youtube-icon"><path d="M26.25 3.6A3.85 3.85 0 0023.03.52a88.85 88.85 0 00-19.22 0A3.85 3.85 0 00.58 3.61a50.7 50.7 0 000 15.31A3.85 3.85 0 003.8 22a90.71 90.71 0 009.61.52 90.71 90.71 0 009.61-.52 3.85 3.85 0 003.22-3.09 50.38 50.38 0 00.01-15.31zm-8.28 8.49l-6 4a1 1 0 01-.5.17 1 1 0 01-.52-.12.93.93 0 01-.39-.37 1 1 0 01-.14-.51v-8a1 1 0 01.14-.51.93.93 0 01.39-.37 1 1 0 01.52-.12 1 1 0 01.5.17l6 4a1 1 0 01.33.36 1 1 0 010 .94 1 1 0 01-.33.36z"/></symbol></svg>