<svg xmlns="http://www.w3.org/2000/svg" width="114" height="41" viewBox="0 0 114 41"><defs/><path d="M113.4 19.4H108c-.5 0-.5-.1-.5-.5v-2.6h6v-2h-6v-2.2a.6.6 0 010-.1.4.4 0 01.3-.3.3.3 0 01.1 0h5.4a.5.5 0 00.2 0 .6.6 0 00.4-.3.7.7 0 000-.2V9.7h-8c-.7 0-.9.4-.9 1v9.7c0 .8.4 1 1 1h8v-1.2c0-.6-.3-.8-.6-.8zM44.6 21.3h1.7v-3.6c0-.6.1-.8.7-.8h.9a14.1 14.1 0 002.5-.1 3.6 3.6 0 001.3-.6 3.3 3.3 0 001-1.1 3.8 3.8 0 00.4-1.8 3.5 3.5 0 00-.7-2.3 3.2 3.2 0 00-1.7-1.1 14.6 14.6 0 00-2.9-.2H44v10.9c0 .8.5.7.7.7zm1.7-9.6h1.2a14.6 14.6 0 011.7 0 1.8 1.8 0 011 .6 1.6 1.6 0 01-.6 2.5 6.5 6.5 0 01-1.9.2h-1.4zM86.6 21.3v-2h-5.4c-.5 0-.7-.2-.7-.7V9.8h-2.4v10.4c0 .8.3 1 1.2 1.1h7.3zM88.2 9.7h2.4v11.6h-2.4zM62 21.3h2.6l-4.6-11a.8.8 0 00-.9-.5h-1c-.5 0-.9 0-1 .4l-4.6 11.2h2.7l1-2.7H61zm-5.1-4.6l1.6-4.3 1.7 4.3zM68.4 17.8l2-2 3.3 5.4h3.1l-4.7-7 4.5-4.5h-3.3l-4.9 5v-5H66v11.6h2.4zM100.3 17.5l-4.5-7.3a1.1 1.1 0 00-.6-.4 1.1 1.1 0 00-.6 0H93v11.5h2.3v-7.6l4.4 7a1.3 1.3 0 00.5.5 1.3 1.3 0 00.8.1h1.5V9.7h-2.2zM45 30.2v-5.5h-1v6c0 .4.1.6.5.6h3.8v-.8h-3c-.4 0-.4 0-.4-.3zM72.8 25.5h2.3v5.8h.9v-5.8h2.3v-.8h-5.5v.8zM79.4 31.3h.9v-6.6h-.9v6.6zM86 30.3a2 2 0 01-1.2.4 2.2 2.2 0 01-1.2-.3 2 2 0 01-.8-1 4.2 4.2 0 01-.2-1.4 3.7 3.7 0 01.2-1.3 2 2 0 01.7-1 2.4 2.4 0 011.4-.3 2 2 0 011.1.3 2 2 0 01.7 1l.9-.1a2.7 2.7 0 00-1-1.5 2.9 2.9 0 00-1.7-.5 3.3 3.3 0 00-1.7.4 2.7 2.7 0 00-1.2 1.2 3.7 3.7 0 00-.4 1.8 4.6 4.6 0 00.4 1.7 2.8 2.8 0 001 1.3 3.3 3.3 0 001.8.4 2.9 2.9 0 001.9-.5 3 3 0 001-1.7l-1-.2a2.1 2.1 0 01-.6 1.3zM92.8 27.9a10 10 0 00-1.6-.5A3.6 3.6 0 0190 27a.6.6 0 01-.2-.3.7.7 0 010-.3.9.9 0 01.3-.7 2 2 0 011.2-.3 2 2 0 011.2.3 1.6 1.6 0 01.3.5 1.4 1.4 0 01.2.5h.8a1.9 1.9 0 00-1.2-1.8 3.8 3.8 0 00-2.6 0 1.8 1.8 0 00-.9.6 1.6 1.6 0 00-.3 1 1.5 1.5 0 00.3.8 2 2 0 00.7.6 6.8 6.8 0 001.3.4l1.3.4a1.3 1.3 0 01.6.4.8.8 0 01.2.5.8.8 0 01-.2.6 1.2 1.2 0 01-.6.4 2.8 2.8 0 01-2 0 1.7 1.7 0 01-.7-.6 2 2 0 01-.3-.8h-.8a2.2 2.2 0 001.3 2 4 4 0 001.5.3 3.3 3.3 0 001.4-.2 2.1 2.1 0 00.9-.7 1.8 1.8 0 00.3-1 1.6 1.6 0 00-.3-1 2.2 2.2 0 00-.8-.8zM54.1 25a3.6 3.6 0 00-1.7-.4 3.3 3.3 0 00-1.3.2 3 3 0 00-1 .7 3.5 3.5 0 00-1 2.6 3.6 3.6 0 00.4 1.7 3 3 0 001.2 1.2 3.5 3.5 0 003.3 0 2.7 2.7 0 001.2-1.2 3.7 3.7 0 00.5-1.8 3.9 3.9 0 00-.4-1.8 3 3 0 00-1.2-1.2zm0 5a2.2 2.2 0 01-.8.5 2.5 2.5 0 01-.9.1 2.4 2.4 0 01-.9-.1 2.2 2.2 0 01-.8-.5 2.6 2.6 0 01-.6-2 2.5 2.5 0 01.1-1 2.9 2.9 0 01.6-1 2.4 2.4 0 011.7-.7 2.3 2.3 0 011.2.3 2.1 2.1 0 01.8 1 3.3 3.3 0 01.3 1.3 2.8 2.8 0 01-.7 2zM60 28.7h2V30a2.7 2.7 0 01-.8.5 3 3 0 01-1.1.2 3 3 0 01-1.3-.3 2 2 0 01-1-.9 3.3 3.3 0 01-.2-1.5 3.4 3.4 0 01.2-1.3 2.5 2.5 0 01.4-.6 2.1 2.1 0 01.8-.5 2.8 2.8 0 011-.2 2.5 2.5 0 011 .2 1.5 1.5 0 01.7.4 2.4 2.4 0 01.3.9l.9-.3a3 3 0 00-.5-1 2 2 0 00-1-.7 3.6 3.6 0 00-1.3-.2 3.8 3.8 0 00-1.9.4 2.7 2.7 0 00-1.1 1.2 4 4 0 00-.5 1.8 3.7 3.7 0 00.5 1.8 2.7 2.7 0 001.2 1.1 3.9 3.9 0 001.8.4 4.3 4.3 0 001.5-.2 5.9 5.9 0 001.4-.8V28h-3zM71 27.8a7.9 7.9 0 00-1.6-.4 3.6 3.6 0 01-1.3-.5.6.6 0 01-.2-.2.7.7 0 01-.1-.4 1 1 0 01.1-.3 1 1 0 01.3-.4 2 2 0 011.2-.3 2 2 0 011.2.4 1.4 1.4 0 01.3.4 1.3 1.3 0 01.2.5h.8a2 2 0 00-.3-1 2 2 0 00-.9-.7 3.5 3.5 0 00-1.4-.3 3.4 3.4 0 00-1.2.2 2 2 0 00-.9.7 1.7 1.7 0 00-.3 1 1.6 1.6 0 00.2.8 2 2 0 00.8.6 6.4 6.4 0 001.3.4l1.2.3a1.4 1.4 0 01.6.4.8.8 0 01.2.6 1 1 0 01-.2.5 1.3 1.3 0 01-.5.4 2.8 2.8 0 01-2 0 1.6 1.6 0 01-.7-.5 1.9 1.9 0 01-.3-.8h-.8a2.2 2.2 0 00.3 1.2 2.2 2.2 0 001 .8 4 4 0 001.6.2 3.3 3.3 0 001.3-.2 2 2 0 001-.8 1.7 1.7 0 00.2-1 1.7 1.7 0 00-.3-1 2.1 2.1 0 00-.9-.6zM64.5 24.7h.9v6.6h-.9zM20.6 41a3.3 3.3 0 01-2-.7l-15.7-15-.5-.4 4.3-4L19 32.6a2.4 2.4 0 003.2-.1l3.2-3.3 4.4 4.2L23 40a3.3 3.3 0 01-2.4 1zM4.3 25l15.1 14.4a2 2 0 002.6-.2l5.9-5.7-2.5-2.4-2.2 2.3a3.7 3.7 0 01-5.1.3l-.2-.2L6.7 22.6zM24 28l-3-3a1.9 1.9 0 010-2.3c3-2.8 6.3-6 8-7.8a8 8 0 001.2-1.5l1.3-2v2.3c0 1.2 0 2.4-.2 3.7a8 8 0 01-2 5.4c-1 1.2-2.3 2.3-3.5 3.5zm-2-3.8l2 2 .9-.8a76 76 0 003.5-3.4 6.8 6.8 0 001.6-4.6v-1.7.1c-1.8 1.8-5 5-8 7.7a.6.6 0 000 .7zm-6-3.9L11.6 16l6.5-6.2A12 12 0 0120 8.3a3.7 3.7 0 011.6-.6 2.8 2.8 0 012.4.7 2.5 2.5 0 01.8 2.4 5.7 5.7 0 01-2 3zM13.5 16l2.5 2.5 6-5.7a4.4 4.4 0 001.5-2.3 1.2 1.2 0 00-.4-1.1 1.5 1.5 0 00-1.3-.4 2.3 2.3 0 00-1 .4 10.7 10.7 0 00-1.8 1.3zm-9.7-.2a2.5 2.5 0 01-1.7-.7l-2.1-2V5l2.5 2.3A1.9 1.9 0 005.1 7l5.1-4.9a6.8 6.8 0 013.5-2 3.2 3.2 0 012.3.6 2.4 2.4 0 01.8 2.4 6 6 0 01-1.9 3l-7 6.7-2.5 2.4a2.6 2.6 0 01-1.6.6zm-2.5-3.2L3 14.2a1.2 1.2 0 001.5 0L7 12 14 5a4.8 4.8 0 001.5-2.3 1.1 1.1 0 00-.4-1.1 1.8 1.8 0 00-1.3-.4A5.5 5.5 0 0011.1 3l-5 5a3.2 3.2 0 01-4.5.2l-.3-.3z" fill="#fff"/></svg>