<svg xmlns="http://www.w3.org/2000/svg" viewBox="0 0 174 64.04"><path d="M173.1,30.27h-8.32c-.74,0-.8-.17-.8-.77v-4h9.18V22.41H164V18.94a.66.66,0,0,1,.05-.28.67.67,0,0,1,.42-.37.66.66,0,0,1,.28,0h8.1a.81.81,0,0,0,.38,0,.94.94,0,0,0,.66-.83V15.2H161.68c-1.17,0-1.39.58-1.39,1.53V31.81c0,1.25.54,1.45,1.44,1.45H174V31.5C174,30.59,173.55,30.27,173.1,30.27Z"/><path d="M68.09,33.26H70.7V27.67c0-.94.16-1.24,1-1.24h1.4a21.43,21.43,0,0,0,3.84-.26,5.45,5.45,0,0,0,1.92-.86,5.17,5.17,0,0,0,1.56-1.79,5.89,5.89,0,0,0,.6-2.8,5.49,5.49,0,0,0-1-3.53,4.84,4.84,0,0,0-2.64-1.78A22.23,22.23,0,0,0,73,15.15H67v17C67,33.38,67.72,33.26,68.09,33.26Zm2.61-15h1.79a19.66,19.66,0,0,1,2.66.12,2.59,2.59,0,0,1,1.48.81,2.47,2.47,0,0,1,.17,3,2.41,2.41,0,0,1-1.11.88,9.66,9.66,0,0,1-2.93.27H70.7Z"/><path d="M132.17,33.27V30.21h-8.25c-.8,0-1-.4-1-1.13V15.29H119.2V31.57c0,1.14.46,1.66,1.9,1.7C124.79,33.35,128.48,33.27,132.17,33.27Z"/><rect x="134.61" y="15.16" width="3.7" height="18.12"/><path d="M94.69,33.26h4L91.69,16a1.27,1.27,0,0,0-1.43-.85H88.78c-.74,0-1.37.06-1.65.75q-3.42,8.67-6.83,17.35h4c.48-1.33,1-2.7,1.51-4.08h7.32Zm-7.78-7.14,2.48-6.73c.83,2.24,1.68,4.48,2.51,6.73Z"/><path d="M104.38,27.79l3-3.06q2.53,4.24,5,8.5h4.79L110,22.17l6.89-7.05h-5l-7.48,8v-8H100.7V33.26h3.66Z"/><path d="M153.14,27.24q-3.52-5.67-7-11.34a1.68,1.68,0,0,0-.78-.64,1.71,1.71,0,0,0-1-.11H142V33.26h3.44V21.45l6.8,10.89a1.94,1.94,0,0,0,.81.77,1.81,1.81,0,0,0,1.12.15h2.36V15.14H153.1Z"/><path d="M68.55,47.21V38.56h-1.4V48h0c0,.61.2.91.82.91H73.7v-1.2H69C68.55,47.71,68.55,47.52,68.55,47.21Z"/><polygon points="111.18 39.77 114.63 39.77 114.63 48.95 116.01 48.95 116.01 39.77 119.49 39.77 119.49 38.54 111.18 38.54 111.18 39.77"/><polygon points="121.14 48.95 122.53 48.94 122.53 38.57 121.14 38.57 121.14 48.95"/><path d="M131.4,47.32a3,3,0,0,1-2,.66,3.34,3.34,0,0,1-1.77-.48,3,3,0,0,1-1.2-1.5,6.26,6.26,0,0,1-.38-2.31,5.91,5.91,0,0,1,.33-2,3.06,3.06,0,0,1,1.13-1.54,3.53,3.53,0,0,1,2.07-.57,2.91,2.91,0,0,1,1.74.51,3.12,3.12,0,0,1,1,1.65l1.37-.31a4.2,4.2,0,0,0-1.53-2.23,4.41,4.41,0,0,0-2.65-.78A5.2,5.2,0,0,0,127,39a4.27,4.27,0,0,0-1.78,1.84,6.08,6.08,0,0,0-.63,2.81,7.2,7.2,0,0,0,.56,2.79,4.23,4.23,0,0,0,1.61,2,5.08,5.08,0,0,0,2.75.67,4.34,4.34,0,0,0,2.78-.87,4.72,4.72,0,0,0,1.56-2.59l-1.38-.34A3.48,3.48,0,0,1,131.4,47.32Z"/><path d="M141.56,43.49a14.17,14.17,0,0,0-2.31-.66,5.26,5.26,0,0,1-2.06-.74,1,1,0,0,1-.31-.41,1.26,1.26,0,0,1-.11-.51,1.46,1.46,0,0,1,.16-.61,1.33,1.33,0,0,1,.42-.49,3,3,0,0,1,1.84-.46,2.87,2.87,0,0,1,1.82.51,2.42,2.42,0,0,1,.52.67,2.06,2.06,0,0,1,.2.81l1.33-.1a3,3,0,0,0-1.87-2.72,5.74,5.74,0,0,0-4,0,2.78,2.78,0,0,0-1.32,1,2.65,2.65,0,0,0-.45,1.47,2.4,2.4,0,0,0,.36,1.28,2.8,2.8,0,0,0,1.13,1,9.28,9.28,0,0,0,2.06.64c.63.14,1.25.31,1.87.51a2,2,0,0,1,.93.62,1.23,1.23,0,0,1,.29.84,1.37,1.37,0,0,1-.3.89,1.89,1.89,0,0,1-.89.64,4.25,4.25,0,0,1-3-.07,2.44,2.44,0,0,1-1-.8,3,3,0,0,1-.43-1.28l-1.31.11H135a3.38,3.38,0,0,0,2.08,3.09,5.89,5.89,0,0,0,2.38.41,5.05,5.05,0,0,0,2.07-.39,3.27,3.27,0,0,0,1.37-1.15,2.79,2.79,0,0,0,.48-1.56,2.58,2.58,0,0,0-.43-1.47A3.41,3.41,0,0,0,141.56,43.49Z"/><path d="M82.57,39A5.15,5.15,0,0,0,80,38.34a4.78,4.78,0,0,0-3.66,1.46A5.6,5.6,0,0,0,75,43.88a5.71,5.71,0,0,0,.64,2.56,4.62,4.62,0,0,0,1.76,1.93,5.06,5.06,0,0,0,2.6.69,5.26,5.26,0,0,0,2.55-.63,4.37,4.37,0,0,0,1.82-1.89A5.94,5.94,0,0,0,85,43.71a6.15,6.15,0,0,0-.6-2.77A4.63,4.63,0,0,0,82.57,39Zm0,7.71a3.4,3.4,0,0,1-1.16.82,3.6,3.6,0,0,1-1.41.26,3.48,3.48,0,0,1-1.39-.24,3.39,3.39,0,0,1-1.16-.78,4.21,4.21,0,0,1-1-3,4.08,4.08,0,0,1,.23-1.7,4.47,4.47,0,0,1,.9-1.55,3.53,3.53,0,0,1,2.54-1A3.4,3.4,0,0,1,82,40a3.33,3.33,0,0,1,1.27,1.46,5.46,5.46,0,0,1,.39,2.12,4.33,4.33,0,0,1-1.09,3.11Z"/><path d="M91.68,44.85h3.08V46.8a4.36,4.36,0,0,1-1.3.72,4.56,4.56,0,0,1-1.75.35,4.47,4.47,0,0,1-2-.45A3.07,3.07,0,0,1,88.35,46a5,5,0,0,1-.48-2.35,5.49,5.49,0,0,1,.4-2,3.55,3.55,0,0,1,.66-1,3,3,0,0,1,1.12-.75,4.05,4.05,0,0,1,1.65-.29,3.77,3.77,0,0,1,1.44.28,2.24,2.24,0,0,1,1,.72,3.88,3.88,0,0,1,.59,1.25L96,41.48a4.62,4.62,0,0,0-.8-1.69,3.22,3.22,0,0,0-1.44-1,5.4,5.4,0,0,0-2.06-.37,5.92,5.92,0,0,0-2.77.63,4.2,4.2,0,0,0-1.82,2,6.31,6.31,0,0,0-.65,2.83,5.87,5.87,0,0,0,.65,2.76A4.17,4.17,0,0,0,89,48.46a5.94,5.94,0,0,0,2.8.65A6.5,6.5,0,0,0,94,48.72a8.74,8.74,0,0,0,2.06-1.22V43.65H91.68Z"/><path d="M108.28,43.47a13.24,13.24,0,0,0-2.31-.66,5.26,5.26,0,0,1-2.06-.74,1.14,1.14,0,0,1-.31-.41,1.26,1.26,0,0,1-.11-.51,1.46,1.46,0,0,1,.16-.62,1.49,1.49,0,0,1,.42-.48,3,3,0,0,1,1.84-.46,2.87,2.87,0,0,1,1.82.51,2.12,2.12,0,0,1,.52.67,2.26,2.26,0,0,1,.21.81l1.33-.1a3.15,3.15,0,0,0-.52-1.63,3,3,0,0,0-1.36-1.1,5.39,5.39,0,0,0-2.06-.36,5.22,5.22,0,0,0-1.92.34,2.92,2.92,0,0,0-1.32,1,2.62,2.62,0,0,0-.45,1.46,2.38,2.38,0,0,0,.29,1.31,2.8,2.8,0,0,0,1.13,1,9.28,9.28,0,0,0,2.06.64c.63.14,1.25.31,1.87.51a2.13,2.13,0,0,1,.94.62,1.29,1.29,0,0,1,.28.84,1.44,1.44,0,0,1-.29.89,1.87,1.87,0,0,1-.9.64,4.25,4.25,0,0,1-3-.07,2.44,2.44,0,0,1-1-.8,3,3,0,0,1-.43-1.28l-1.31.11a3.46,3.46,0,0,0,.52,1.82,3.34,3.34,0,0,0,1.5,1.23,5.91,5.91,0,0,0,2.39.41,4.86,4.86,0,0,0,2.06-.4,3.11,3.11,0,0,0,1.37-1.14,2.79,2.79,0,0,0,.48-1.56,2.58,2.58,0,0,0-.43-1.47A3.25,3.25,0,0,0,108.28,43.47Z"/><rect x="98.39" y="38.57" width="1.4" height="10.37"/><path d="M31.49,64a5,5,0,0,1-3.19-1.16c-7.81-7.68-15.46-15.2-23.82-23.31l-.73-.72,6.43-6.27L29,51a3.53,3.53,0,0,0,4.92-.24l4.9-5.14,6.63,6.53L35.05,62.53A5,5,0,0,1,31.49,64ZM6.61,38.84c8.08,7.85,15.51,15.15,23,22.55a3,3,0,0,0,4-.27l8.95-9-3.75-3.7L35.34,52.1a5.51,5.51,0,0,1-7.72.35l-.26-.25L10.18,35.37Zm30,4.83L32,39.1a2.94,2.94,0,0,1-.14-3.56l.14-.16c4.57-4.28,9.62-9.24,12.26-12.06a11.91,11.91,0,0,0,1.87-2.41L48,17.76v3.66c0,1.82,0,3.72-.16,5.81-.21,3.21-.82,5.87-3.15,8.46-1.57,1.73-3.43,3.52-5.39,5.42Zm-3.12-5.88,3.14,3.08,1.25-1.2c1.94-1.88,3.77-3.64,5.3-5.32,1.94-2.17,2.45-4.37,2.63-7.23,0-.92.09-1.81.11-2.66l-.24.25c-2.63,2.8-7.67,7.76-12.25,12A1,1,0,0,0,33.52,37.79Zm-9.13-6.06L17.7,25l10-9.75a17.66,17.66,0,0,1,2.88-2.36A5.38,5.38,0,0,1,33,12h.12a4.12,4.12,0,0,1,3.46,1.13,3.9,3.9,0,0,1,1.17,3.72,9.07,9.07,0,0,1-2.86,4.59Zm-3.85-6.67,3.87,3.85,9.12-9a7,7,0,0,0,2.24-3.56,1.91,1.91,0,0,0-.58-1.79,2.21,2.21,0,0,0-1.86-.6h-.15a3.39,3.39,0,0,0-1.52.58,17.22,17.22,0,0,0-2.59,2.12ZM5.81,24.61a3.88,3.88,0,0,1-2.56-1L0,20.52V7.71l3.85,3.58a2.86,2.86,0,0,0,4-.32l7.8-7.68C17.53,1.36,19.37.23,20.91,0a4.83,4.83,0,0,1,3.55,1.1,3.83,3.83,0,0,1,1.17,3.72A9.53,9.53,0,0,1,22.8,9.49L12,20,8.19,23.79A3.84,3.84,0,0,1,5.81,24.61ZM2,19.66l2.6,2.51a1.86,1.86,0,0,0,2.31.08l3.71-3.71L21.43,8a7.54,7.54,0,0,0,2.26-3.69,1.78,1.78,0,0,0-.54-1.72,2.74,2.74,0,0,0-2-.62c-.57.08-2,.55-4.11,2.71L9.25,12.35a4.84,4.84,0,0,1-6.76.41L2,12.28Z"/></svg>