<svg xmlns="http://www.w3.org/2000/svg" xmlns:xlink="http://www.w3.org/1999/xlink" style="display:none"><symbol id="arrow-circle-left-fill-icon"><path d="M13 0a13 13 0 109.19 3.81A13 13 0 0013 0zm5 14h-7.59L13 16.54a1 1 0 01.22.32 1 1 0 01.07.38 1.07 1.07 0 01-.07.39 1.07 1.07 0 01-.54.54 1.07 1.07 0 01-.39.07 1 1 0 01-.38-.07 1 1 0 01-.32-.22l-4.25-4.24a1 1 0 010-1.42l4.25-4.24a1 1 0 01.7-.29 1 1 0 011 1 1 1 0 01-.29.7L10.41 12H18a1 1 0 110 2z"/></symbol><symbol id="arrow-circle-left-icon"><path d="M13 26a13 13 0 1113-13 13 13 0 01-13 13zm0-24a11 11 0 1011 11A11 11 0 0013 2z"/><path d="M18 12h-7.59L13 9.46a1 1 0 00-1.41-1.41l-4.25 4.24a1 1 0 00-.21.32 1 1 0 000 .78 1 1 0 00.21.32l4.2 4.29a1 1 0 00.7.29A1 1 0 0013 18a1 1 0 000-1.41L10.41 14H18a1 1 0 000-2z"/></symbol><symbol id="arrow-circle-right-fill-icon"><path d="M13 0a13 13 0 109.19 3.81A13 13 0 0013 0zm5.92 13.38a1.15 1.15 0 01-.21.33L14.46 18a1 1 0 01-.7.29 1 1 0 01-1-1 1 1 0 01.29-.7L15.59 14H8a1 1 0 110-2h7.59l-2.54-2.54a1 1 0 01-.29-.7 1 1 0 011-1 1 1 0 01.7.29l4.25 4.24a1 1 0 01.27.51 1 1 0 01-.06.58z"/></symbol><symbol id="arrow-circle-right-icon"><path d="M13 26a13 13 0 1113-13 13 13 0 01-13 13zm0-24a11 11 0 1011 11A11 11 0 0013 2z"/><path d="M18.92 13.38a1 1 0 000-.76 1 1 0 00-.21-.33l-4.25-4.24a1 1 0 00-1.41 1.41L15.59 12H8a1 1 0 000 2h7.59l-2.54 2.54a1 1 0 000 1.41 1 1 0 00.71.29 1 1 0 00.7-.29l4.25-4.24a1 1 0 00.21-.33z"/></symbol><symbol id="arrow-down-icon" viewBox="0 0 14 22"><path d="M.41 14.15a1.36 1.36 0 000 2L6 21.6a1.43 1.43 0 002 0l5.6-5.5a1.36 1.36 0 000-2 1.43 1.43 0 00-2 0l-3.2 3.21V1.38a1.4 1.4 0 00-2.8 0v15.93l-3.21-3.16a1.43 1.43 0 00-1.98 0z"/></symbol><symbol id="arrow-left-icon"><path d="M7.85 13.59a1.36 1.36 0 01-1.95 0L.4 8a1.43 1.43 0 010-2L5.9.4a1.36 1.36 0 011.95 0 1.43 1.43 0 010 2L4.69 5.6h15.94a1.4 1.4 0 010 2.8H4.69l3.16 3.21a1.43 1.43 0 010 1.98z"/></symbol><symbol id="arrow-right-icon"><path d="M14.15 13.59a1.36 1.36 0 002 0L21.6 8a1.43 1.43 0 000-2L16.1.4a1.36 1.36 0 00-2 0 1.43 1.43 0 000 2l3.16 3.21H1.38a1.4 1.4 0 000 2.8h15.93l-3.16 3.21a1.43 1.43 0 000 1.97z"/></symbol><symbol id="arrow-square-right-icon"><path d="M2 24h20a2 2 0 002-2V2a2 2 0 00-2-2H2a2 2 0 00-2 2v20a2 2 0 002 2zm10.05-7a1 1 0 01-.22-.32 1.07 1.07 0 01-.07-.39 1 1 0 01.07-.38 1 1 0 01.22-.32L14.59 13H7a1 1 0 01-.71-.29A1.05 1.05 0 016 12a1 1 0 01.29-.71A1 1 0 017 11h7.59l-2.54-2.54a1 1 0 01-.29-.7 1 1 0 011-1 1 1 0 01.7.29l4.25 4.24A1 1 0 0118 12a1.05 1.05 0 01-.29.71L13.46 17a1 1 0 01-.32.22 1.07 1.07 0 01-.76 0 1 1 0 01-.33-.22z"/></symbol><symbol id="arrow-up-icon"><path d="M13.59 7.85a1.36 1.36 0 000-1.95L8 .4a1.43 1.43 0 00-2 0L.4 5.9a1.36 1.36 0 000 1.95 1.43 1.43 0 002 0l3.2-3.16v15.94a1.4 1.4 0 002.8 0V4.69l3.21 3.16a1.43 1.43 0 001.98 0z"/></symbol><symbol id="breadcrumbs-divider-icon"><path d="M1 22a1 1 0 01-.71-.29 1 1 0 010-1.42L9.59 11 .29 1.71A1.004 1.004 0 011.71.29l10 10a1 1 0 010 1.42l-10 10A1 1 0 011 22z"/><path d="M11 22a1 1 0 01-.71-.29 1 1 0 010-1.42l9.3-9.29-9.3-9.29A1.004 1.004 0 0111.71.29l10 10a1 1 0 010 1.42l-10 10A1 1 0 0111 22z"/></symbol><symbol id="burger-icon"><path d="M23.5 11h-22a1.5 1.5 0 010-3h22a1.5 1.5 0 010 3zM23.5 3h-22a1.5 1.5 0 010-3h22a1.5 1.5 0 010 3zM23.5 19h-22a1.5 1.5 0 010-3h22a1.5 1.5 0 010 3z"/></symbol><symbol id="caret-down-icon"><path d="M11 12a1 1 0 01-.71-.29l-10-10A1.004 1.004 0 011.71.29L11 9.59l9.29-9.3a1.004 1.004 0 011.42 1.42l-10 10A1 1 0 0111 12z"/></symbol><symbol id="check-square-fill-icon"><path d="M22 0H2a2 2 0 00-2 2v20a2 2 0 002 2h20a2 2 0 002-2V2a2 2 0 00-2-2zm-3.81 9.72l-7.33 7a1 1 0 01-.69.28 1 1 0 01-.69-.28l-3.67-3.5a1 1 0 01-.23-.32 1 1 0 010-.76.89.89 0 01.21-.33 1 1 0 01.32-.23 1 1 0 01.76 0 1 1 0 01.33.21l3 2.84 6.64-6.34a1 1 0 01.33-.21 1 1 0 01.76 0 1 1 0 01.32.23.89.89 0 01.21.33 1 1 0 010 .76 1 1 0 01-.23.32z"/></symbol><symbol id="check-square-outline-icon"><path d="M10.17 17a1 1 0 01-.69-.28l-3.67-3.5a1 1 0 011.38-1.44l3 2.84 6.64-6.34a1 1 0 111.38 1.44l-7.33 7a1 1 0 01-.71.28z"/><path d="M22 24H2a2 2 0 01-2-2V2a2 2 0 012-2h20a2 2 0 012 2v20a2 2 0 01-2 2zM2 2v20h20V2z"/></symbol><symbol id="close-icon"><path d="M13 26a13 13 0 1113-13 13 13 0 01-13 13zm0-24a11 11 0 1011 11A11 11 0 0013 2z"/><path d="M14.41 13l3.3-3.29a1.004 1.004 0 00-1.42-1.42L13 11.59l-3.29-3.3a1.004 1.004 0 00-1.42 1.42l3.3 3.29-3.3 3.29a1 1 0 000 1.42 1 1 0 001.42 0l3.29-3.3 3.29 3.3a1 1 0 001.42 0 1 1 0 000-1.42z"/></symbol><symbol id="facebook-icon" viewBox="0 0 26 25.96"><path d="M13 0a13.01 13.01 0 00-1 26V16H9a1 1 0 110-2h3v-3a4 4 0 014-4h2a1 1 0 110 2h-2a2 2 0 00-2 2v3h3a1 1 0 110 2h-3v10a13.01 13.01 0 00-1-26z"/></symbol><symbol id="file-arrow-down-icon" viewBox="0 0 22 26"><path d="M21.92 7.62a.93.93 0 00-.21-.33l-7-7h-.08a1 1 0 00-.24-.16A1 1 0 0014 0H2a2 2 0 00-2 2v22a2 2 0 002 2h18a2 2 0 00.76-.15 2 2 0 00.66-.44A2 2 0 0022 24V8a1 1 0 00-.08-.38zM15 3.41L18.59 7H15zM2 24V2h11v6a1 1 0 001 1h6v15z"/><path d="M15.21 15.79a1 1 0 00-1.42 0L12 17.59V12a1 1 0 00-2 0v5.59l-1.79-1.8a1.004 1.004 0 00-1.42 1.42l3.5 3.5a1 1 0 00.33.21.94.94 0 00.76 0 1 1 0 00.33-.21l3.5-3.5a1 1 0 000-1.42z"/></symbol><symbol id="globe-simple-icon"><path d="M13 0a13 13 0 1013 13A13 13 0 0013 0zm11 12h-5c-.14-4-1.07-7.34-2.48-9.42A11 11 0 0124 12zM13 23.68c-1.78 0-3.76-4.08-4-9.68h8c-.24 5.6-2.22 9.68-4 9.68zM9 12c.22-5.6 2.2-9.68 4-9.68S16.76 6.4 17 12zm.48-9.42C8.09 4.66 7.16 8 7 12H2a11 11 0 017.5-9.42zM2.05 14h5c.14 4 1.07 7.34 2.48 9.42A11 11 0 012.05 14zm14.45 9.42C17.91 21.34 18.84 18 19 14h5a11 11 0 01-7.5 9.42z"/></symbol><symbol id="hand-pointing-icon"><path d="M20.91 9.5a3.47 3.47 0 00-1.83.52 3.57 3.57 0 00-.81-1.11 3.36 3.36 0 00-1.18-.7A3.44 3.44 0 0015.74 8a3.63 3.63 0 00-1.33.34V3.5a3.52 3.52 0 00-3.5-3.5 3.5 3.5 0 00-3.5 3.5v11.43l-.88-1.52a3.515 3.515 0 00-6.12 3.46c4.1 8.55 6.8 12.13 13 12.13a11 11 0 0011-11v-5a3.52 3.52 0 00-3.5-3.5zm1.5 8.5a9 9 0 01-9 9 7.57 7.57 0 01-5.87-2.28c-1.56-1.57-3.13-4.1-5.3-8.72a.25.25 0 000-.07 1.5 1.5 0 01.55-2.05 1.52 1.52 0 011.14-.15 1.49 1.49 0 01.91.7l2.74 4.75a1 1 0 00.49.42.94.94 0 00.64 0 1 1 0 00.53-.35 1 1 0 00.21-.61V3.5a1.5 1.5 0 013 0V12a1 1 0 001 1 1.05 1.05 0 00.71-.29 1 1 0 00.25-.71v-.5a1.5 1.5 0 013 0V13a1 1 0 001 1 1.05 1.05 0 00.71-.29 1 1 0 00.29-.71 1.5 1.5 0 013 0z"/></symbol><symbol id="home-icon"><path d="M22 24.63h-6a2 2 0 01-2-2v-6h-4v6a2 2 0 01-2 2H2a2 2 0 01-.76-.15 1.83 1.83 0 01-.65-.44 1.88 1.88 0 01-.44-.64 2.07 2.07 0 01-.15-.77V11.07a2.06 2.06 0 01.17-.81 2.11 2.11 0 01.48-.63l10-9.09a2.06 2.06 0 012.7 0l10 9.09a2.16 2.16 0 01.48.68 2 2 0 01.17.8v11.52a2 2 0 01-.15.76 2.07 2.07 0 01-1.09 1.09 1.91 1.91 0 01-.76.15zm-7-2h7V11.07L12 1.98 2 11.07v11.56h6v-6a2 2 0 012-2h4a2 2 0 012 2v6z"/></symbol><symbol id="info-icon" viewBox="0 0 26 26"><path d="M13 26a13 13 0 1113-13 13 13 0 01-13 13zm0-24a11 11 0 1011 11A11 11 0 0013 2z"/><path d="M14 20h-1a1 1 0 01-1-1v-6a1 1 0 010-2h1a1 1 0 011 1v6a1 1 0 010 2zM13 9a1.5 1.5 0 10-1.5-1.5A1.5 1.5 0 0013 9z"/></symbol><symbol id="instagram-icon" viewBox="0 0 25 25"><path d="M12.5 16.5a4 4 0 10-4-4 4 4 0 004 4z"/><path d="M18 0H7a7 7 0 00-7 7v11a7 7 0 007 7h11a7 7 0 007-7V7a7 7 0 00-7-7zm-5.5 18.5a6 6 0 114.24-1.76 6 6 0 01-4.24 1.76zm6.5-11a1.5 1.5 0 01-.83-.25 1.55 1.55 0 01-.56-.68 1.49 1.49 0 01-.11-.86 1.49 1.49 0 011.21-1.21 1.49 1.49 0 01.86.08 1.55 1.55 0 01.68.56A1.5 1.5 0 0119 7.5z"/></symbol><symbol id="map-pin-icon"><path d="M11 0A11 11 0 000 11c0 9.41 10 16.52 10.43 16.82a1 1 0 001.14 0C12 27.52 22 20.41 22 11A11 11 0 0011 0zm0 7a4 4 0 012.22.67 4.07 4.07 0 011.48 1.8 4 4 0 01-5.23 5.23A4 4 0 017 11a3.81 3.81 0 01.31-1.53 3.93 3.93 0 01.86-1.3 4.12 4.12 0 011.3-.87A4 4 0 0111 7z"/></symbol><symbol id="map-trifold-icon"><path d="M25.62 2.2a1 1 0 00-.86-.21l-7.64 1.94L9.45.1a.72.72 0 00-.27-.11h-.06a1.15 1.15 0 00-.32 0l-8 2a1 1 0 00-.76 1v18a1 1 0 00.39.79 1 1 0 00.61.21 1 1 0 00.25 0l7.59-1.94 7.67 3.83h.05a1 1 0 00.39.09 1 1 0 00.24 0l8-2a1 1 0 00.75-1V2.99a1 1 0 00-.36-.79zM2 3.77l6-1.5v15.94l-6 1.5zm14 17.6l-6-3V2.61l6 3zm8-1.16l-6 1.5V5.77l6-1.5z"/></symbol><symbol id="pakline-group-logo" viewBox="0 0 173 52"><path d="M49.42 42.55l8.47-17.15L44.54 0H13l13.67 25.77L13.64 52h31.05l4.65-9.38h-.07v-.07zm-23.11.39l8.59-17.29-9.08-17 13.6-.18 9.12 17.03-8.67 17.26zM6 25.77l6.76 13.61-3.12 5.79L0 25.77 9.48 8l3 5.46zM82.9 27.23a13.46 13.46 0 015.86 1.28v1.68a11.28 11.28 0 00-5.63-1.4c-4.42 0-9 2.49-9 8.52 0 6.23 4.64 8.52 9.12 8.52a10.73 10.73 0 004.33-.89v-8.16h1.68v9.3a14.92 14.92 0 01-6.14 1.31c-5.38 0-10.7-2.79-10.7-10.08.01-6.87 5.27-10.08 10.48-10.08zM93.79 47.08V27.53h7.61c3.46 0 7.25 1.46 7.25 5.81 0 3.75-2.83 5.34-5.72 5.7l7 8h-2.09l-6.9-7.9h-5.49v7.9zm1.7-9.49h6c2.6 0 5.43-1 5.43-4.25s-2.83-4.21-5.43-4.21h-6zM122.06 27.23c6.9 0 10.3 5.11 10.3 10.08s-3.4 10.08-10.3 10.08-10.3-5.11-10.3-10.09 3.39-10.07 10.3-10.07zm0 1.56a8.19 8.19 0 00-8.61 8.52 8.61 8.61 0 0017.21 0 8.19 8.19 0 00-8.6-8.52zM152.46 27.53V40.1c0 5.45-3.71 7.29-8.1 7.29s-8.12-1.84-8.12-7.29V27.53h1.67v12.52c0 4.27 2.75 5.78 6.45 5.78s6.43-1.5 6.43-5.78V27.53zM164.21 27.53c4.5 0 8.35 1.4 8.35 6.21S168.71 40 164.21 40h-4.84v7.12h-1.66V27.53zm.09 1.61h-4.89v9.25h4.89c3.56 0 6.56-1 6.56-4.64s-3-4.62-6.56-4.62zM79.17 4.18c4.1 0 7.23 1.32 7.23 5.62s-3.12 5.61-7.23 5.64H77v5.14h-4.39V4.18zm.21 3.75H77v3.76h2.39c1.33 0 2.52-.4 2.52-1.88s-1.18-1.87-2.51-1.87zM85.35 20.58l6.52-16.4h4.74l6.52 16.4h-4.51l-1-2.57H90.8l-1 2.57zm6.76-6.09h4.27l-1.71-4.72a8.08 8.08 0 01-.42-1.66 8.81 8.81 0 01-.43 1.66zM104.72 20.58V4.18h4.38v6.22h2.09L115 4.18h4.86l-5.22 8 5.45 8.42h-4.89l-4-6.32h-2.1v6.32zM125.85 4.18v12.54h7.59v3.86h-12V4.18zM139.7 4.18v16.4h-4.39V4.18zM142.83 20.58V4.18H147l6.5 9.41c-.07-.77-.09-1.8-.09-2.71v-6.7h4.38v16.4h-4.15l-6.5-9.38c.08.77.1 1.8.1 2.69v6.69zM172.86 4.18v3.76h-7.57v2.51h6.84v3.72h-6.84v2.67H173v3.74h-12.1V4.18z"/></symbol><symbol id="pakline-logistics-logo" viewBox="0 0 174 64.04"><path d="M173.1 30.27h-8.32c-.74 0-.8-.17-.8-.77v-4h9.18v-3.09H164v-3.47a.66.66 0 01.05-.28.67.67 0 01.42-.37.66.66 0 01.28 0h8.1a.81.81 0 00.38 0 .94.94 0 00.66-.83V15.2h-12.21c-1.17 0-1.39.58-1.39 1.53v15.08c0 1.25.54 1.45 1.44 1.45H174V31.5c0-.91-.45-1.23-.9-1.23zM68.09 33.26h2.61v-5.59c0-.94.16-1.24 1-1.24h1.4a21.43 21.43 0 003.84-.26 5.45 5.45 0 001.92-.86 5.17 5.17 0 001.56-1.79 5.89 5.89 0 00.6-2.8 5.49 5.49 0 00-1-3.53 4.84 4.84 0 00-2.64-1.78 22.23 22.23 0 00-4.38-.26h-6v17c0 1.23.72 1.11 1.09 1.11zm2.61-15h1.79a19.66 19.66 0 012.66.12 2.59 2.59 0 011.48.81 2.47 2.47 0 01.17 3 2.41 2.41 0 01-1.11.88 9.66 9.66 0 01-2.93.27H70.7zM132.17 33.27v-3.06h-8.25c-.8 0-1-.4-1-1.13V15.29h-3.72v16.28c0 1.14.46 1.66 1.9 1.7 3.69.08 7.38 0 11.07 0zM134.61 15.16h3.7v18.12h-3.7zM94.69 33.26h4l-7-17.26a1.27 1.27 0 00-1.43-.85h-1.48c-.74 0-1.37.06-1.65.75q-3.42 8.67-6.83 17.35h4c.48-1.33 1-2.7 1.51-4.08h7.32zm-7.78-7.14l2.48-6.73c.83 2.24 1.68 4.48 2.51 6.73zM104.38 27.79l3-3.06q2.53 4.24 5 8.5h4.79L110 22.17l6.89-7.05h-5l-7.48 8v-8h-3.71v18.14h3.66zM153.14 27.24q-3.52-5.67-7-11.34a1.68 1.68 0 00-.78-.64 1.71 1.71 0 00-1-.11H142v18.11h3.44V21.45l6.8 10.89a1.94 1.94 0 00.81.77 1.81 1.81 0 001.12.15h2.36V15.14h-3.43zM68.55 47.21v-8.65h-1.4V48c0 .61.2.91.82.91h5.73v-1.2H69c-.45 0-.45-.19-.45-.5zM111.18 39.77h3.45v9.18h1.38v-9.18h3.48v-1.23h-8.31v1.23zM121.14 48.95l1.39-.01V38.57h-1.39v10.38zM131.4 47.32a3 3 0 01-2 .66 3.34 3.34 0 01-1.77-.48 3 3 0 01-1.2-1.5 6.26 6.26 0 01-.38-2.31 5.91 5.91 0 01.33-2 3.06 3.06 0 011.13-1.54 3.53 3.53 0 012.07-.57 2.91 2.91 0 011.74.51 3.12 3.12 0 011 1.65l1.37-.31a4.2 4.2 0 00-1.53-2.23 4.41 4.41 0 00-2.65-.78A5.2 5.2 0 00127 39a4.27 4.27 0 00-1.78 1.84 6.08 6.08 0 00-.63 2.81 7.2 7.2 0 00.56 2.79 4.23 4.23 0 001.61 2 5.08 5.08 0 002.75.67 4.34 4.34 0 002.78-.87 4.72 4.72 0 001.56-2.59l-1.38-.34a3.48 3.48 0 01-1.07 2.01zM141.56 43.49a14.17 14.17 0 00-2.31-.66 5.26 5.26 0 01-2.06-.74 1 1 0 01-.31-.41 1.26 1.26 0 01-.11-.51 1.46 1.46 0 01.16-.61 1.33 1.33 0 01.42-.49 3 3 0 011.84-.46 2.87 2.87 0 011.82.51 2.42 2.42 0 01.52.67 2.06 2.06 0 01.2.81l1.33-.1a3 3 0 00-1.87-2.72 5.74 5.74 0 00-4 0 2.78 2.78 0 00-1.32 1 2.65 2.65 0 00-.45 1.47 2.4 2.4 0 00.36 1.28 2.8 2.8 0 001.13 1 9.28 9.28 0 002.06.64c.63.14 1.25.31 1.87.51a2 2 0 01.93.62 1.23 1.23 0 01.29.84 1.37 1.37 0 01-.3.89 1.89 1.89 0 01-.89.64 4.25 4.25 0 01-3-.07 2.44 2.44 0 01-1-.8 3 3 0 01-.43-1.28l-1.31.11H135a3.38 3.38 0 002.08 3.09 5.89 5.89 0 002.38.41 5.05 5.05 0 002.07-.39 3.27 3.27 0 001.37-1.15 2.79 2.79 0 00.48-1.56 2.58 2.58 0 00-.43-1.47 3.41 3.41 0 00-1.39-1.07zM82.57 39a5.15 5.15 0 00-2.57-.66 4.78 4.78 0 00-3.66 1.46A5.6 5.6 0 0075 43.88a5.71 5.71 0 00.64 2.56 4.62 4.62 0 001.76 1.93 5.06 5.06 0 002.6.69 5.26 5.26 0 002.55-.63 4.37 4.37 0 001.82-1.89 5.94 5.94 0 00.63-2.83 6.15 6.15 0 00-.6-2.77A4.63 4.63 0 0082.57 39zm0 7.71a3.4 3.4 0 01-1.16.82 3.6 3.6 0 01-1.41.26 3.48 3.48 0 01-1.39-.24 3.39 3.39 0 01-1.16-.78 4.21 4.21 0 01-1-3 4.08 4.08 0 01.23-1.7 4.47 4.47 0 01.9-1.55 3.53 3.53 0 012.54-1A3.4 3.4 0 0182 40a3.33 3.33 0 011.27 1.46 5.46 5.46 0 01.39 2.12 4.33 4.33 0 01-1.09 3.11zM91.68 44.85h3.08v1.95a4.36 4.36 0 01-1.3.72 4.56 4.56 0 01-1.75.35 4.47 4.47 0 01-2-.45A3.07 3.07 0 0188.35 46a5 5 0 01-.48-2.35 5.49 5.49 0 01.4-2 3.55 3.55 0 01.66-1 3 3 0 011.12-.75 4.05 4.05 0 011.65-.29 3.77 3.77 0 011.44.28 2.24 2.24 0 011 .72 3.88 3.88 0 01.59 1.25l1.27-.38a4.62 4.62 0 00-.8-1.69 3.22 3.22 0 00-1.44-1 5.4 5.4 0 00-2.06-.37 5.92 5.92 0 00-2.77.63 4.2 4.2 0 00-1.82 2 6.31 6.31 0 00-.65 2.83 5.87 5.87 0 00.65 2.76A4.17 4.17 0 0089 48.46a5.94 5.94 0 002.8.65 6.5 6.5 0 002.2-.39 8.74 8.74 0 002.06-1.22v-3.85h-4.38zM108.28 43.47a13.24 13.24 0 00-2.31-.66 5.26 5.26 0 01-2.06-.74 1.14 1.14 0 01-.31-.41 1.26 1.26 0 01-.11-.51 1.46 1.46 0 01.16-.62 1.49 1.49 0 01.42-.48 3 3 0 011.84-.46 2.87 2.87 0 011.82.51 2.12 2.12 0 01.52.67 2.26 2.26 0 01.21.81l1.33-.1a3.15 3.15 0 00-.52-1.63 3 3 0 00-1.36-1.1 5.39 5.39 0 00-2.06-.36 5.22 5.22 0 00-1.92.34 2.92 2.92 0 00-1.32 1 2.62 2.62 0 00-.45 1.46 2.38 2.38 0 00.29 1.31 2.8 2.8 0 001.13 1 9.28 9.28 0 002.06.64c.63.14 1.25.31 1.87.51a2.13 2.13 0 01.94.62 1.29 1.29 0 01.28.84 1.44 1.44 0 01-.29.89 1.87 1.87 0 01-.9.64 4.25 4.25 0 01-3-.07 2.44 2.44 0 01-1-.8 3 3 0 01-.43-1.28l-1.31.11a3.46 3.46 0 00.52 1.82 3.34 3.34 0 001.5 1.23 5.91 5.91 0 002.39.41 4.86 4.86 0 002.06-.4 3.11 3.11 0 001.37-1.14 2.79 2.79 0 00.48-1.56 2.58 2.58 0 00-.43-1.47 3.25 3.25 0 00-1.41-1.02zM98.39 38.57h1.4v10.37h-1.4zM31.49 64a5 5 0 01-3.19-1.16c-7.81-7.68-15.46-15.2-23.82-23.31l-.73-.72 6.43-6.27L29 51a3.53 3.53 0 004.92-.24l4.9-5.14 6.63 6.53-10.4 10.38A5 5 0 0131.49 64zM6.61 38.84c8.08 7.85 15.51 15.15 23 22.55a3 3 0 004-.27l8.95-9-3.75-3.7-3.47 3.68a5.51 5.51 0 01-7.72.35l-.26-.25-17.18-16.83zm30 4.83L32 39.1a2.94 2.94 0 01-.14-3.56l.14-.16c4.57-4.28 9.62-9.24 12.26-12.06a11.91 11.91 0 001.87-2.41L48 17.76v3.66c0 1.82 0 3.72-.16 5.81-.21 3.21-.82 5.87-3.15 8.46-1.57 1.73-3.43 3.52-5.39 5.42zm-3.12-5.88l3.14 3.08 1.25-1.2c1.94-1.88 3.77-3.64 5.3-5.32 1.94-2.17 2.45-4.37 2.63-7.23 0-.92.09-1.81.11-2.66l-.24.25c-2.63 2.8-7.67 7.76-12.25 12a1 1 0 00.09 1.08zm-9.13-6.06L17.7 25l10-9.75a17.66 17.66 0 012.88-2.36A5.38 5.38 0 0133 12h.12a4.12 4.12 0 013.46 1.13 3.9 3.9 0 011.17 3.72 9.07 9.07 0 01-2.86 4.59zm-3.85-6.67l3.87 3.85 9.12-9a7 7 0 002.24-3.56 1.91 1.91 0 00-.58-1.79 2.21 2.21 0 00-1.86-.6h-.15a3.39 3.39 0 00-1.52.58 17.22 17.22 0 00-2.59 2.12zm-14.7-.45a3.88 3.88 0 01-2.56-1L0 20.52V7.71l3.85 3.58a2.86 2.86 0 004-.32l7.8-7.68C17.53 1.36 19.37.23 20.91 0a4.83 4.83 0 013.55 1.1 3.83 3.83 0 011.17 3.72 9.53 9.53 0 01-2.83 4.67L12 20l-3.81 3.79a3.84 3.84 0 01-2.38.82zM2 19.66l2.6 2.51a1.86 1.86 0 002.31.08l3.71-3.71L21.43 8a7.54 7.54 0 002.26-3.69 1.78 1.78 0 00-.54-1.72 2.74 2.74 0 00-2-.62c-.57.08-2 .55-4.11 2.71l-7.79 7.67a4.84 4.84 0 01-6.76.41L2 12.28z"/></symbol><symbol id="twitter-icon" viewBox="0 0 29.75 24.29"><path d="M29.55 3.28a1 1 0 00-.5-.35 1.09 1.09 0 00-.62 0 14.91 14.91 0 01-3.79.76A6 6 0 0018 1.42a6.08 6.08 0 00-3 2.1 6 6 0 00-1.25 3.46 15 15 0 01-5.45-2.3A14.86 14.86 0 014.17.45a1.09 1.09 0 00-.42-.37 1 1 0 00-.56-.07 1 1 0 00-.53.27 1 1 0 00-.29.48 17 17 0 005.6 17.7 15 15 0 01-7 1.85 1 1 0 00-.6.21 1 1 0 00-.35.55 1 1 0 00.05.64 1 1 0 00.43.47A17 17 0 0025.75 8.39a16.83 16.83 0 003.86-3.95 1 1 0 00.14-.59 1 1 0 00-.2-.57z"/></symbol><symbol id="upload-icon"><path d="M19 5.54L13.71.29a1.26 1.26 0 00-.32-.21 1 1 0 00-1.1.21L7 5.54A1 1 0 007 7a1 1 0 001.42 0L12 3.41V15a1 1 0 002 0V3.41L17.54 7A1.032 1.032 0 1019 5.54z"/><path d="M24 24H2a2 2 0 01-2-2v-9a1 1 0 012 0v9h22v-9a1 1 0 012 0v9a2 2 0 01-2 2z"/></symbol><symbol id="youtube-icon" viewBox="0 0 26.83 22.52"><path d="M26.25 3.6A3.85 3.85 0 0023.03.52a88.85 88.85 0 00-19.22 0A3.85 3.85 0 00.58 3.61a50.7 50.7 0 000 15.31A3.85 3.85 0 003.8 22a90.71 90.71 0 009.61.52 90.71 90.71 0 009.61-.52 3.85 3.85 0 003.22-3.09 50.38 50.38 0 00.01-15.31zm-8.28 8.49l-6 4a1 1 0 01-.5.17 1 1 0 01-.52-.12.93.93 0 01-.39-.37 1 1 0 01-.14-.51v-8a1 1 0 01.14-.51.93.93 0 01.39-.37 1 1 0 01.52-.12 1 1 0 01.5.17l6 4a1 1 0 01.33.36 1 1 0 010 .94 1 1 0 01-.33.36z"/></symbol></svg>