<svg xmlns="http://www.w3.org/2000/svg" width="12" height="10" viewBox="0 0 12 10"><path d="M11.58.31A1.23,1.23,0,0,0,10.69,0a1.15,1.15,0,0,0-.82.46L4.64,7,1.83,4.51a1.14,1.14,0,0,0-.38-.23.91.91,0,0,0-.43,0,.9.9,0,0,0-.42.13,1.05,1.05,0,0,0-.34.29,1.07,1.07,0,0,0-.21.41,1.23,1.23,0,0,0,0,.47A1.16,1.16,0,0,0,.13,6a1.25,1.25,0,0,0,.28.36L4.18,9.73a1,1,0,0,0,.39.22A1,1,0,0,0,5,10a1.12,1.12,0,0,0,.46-.14,1.36,1.36,0,0,0,.37-.31l5.86-7.39A1.38,1.38,0,0,0,12,1.2a1.41,1.41,0,0,0-.42-.89" style="fill:#fff"/></svg>