<svg xmlns="http://www.w3.org/2000/svg" width="24" height="24" viewBox="0 0 24 24"><title>arrow-square-right-icon</title><path d="M6,28H26a2,2,0,0,0,2-2V6a2,2,0,0,0-2-2H6A2,2,0,0,0,4,6V26a2,2,0,0,0,2,2Zm10.05-7a1,1,0,0,1-.22-.32,1.07,1.07,0,0,1-.07-.39,1,1,0,0,1,.07-.38,1,1,0,0,1,.22-.32L18.59,17H11a1,1,0,0,1-.71-.29A1.05,1.05,0,0,1,10,16a1,1,0,0,1,.29-.71A1,1,0,0,1,11,15h7.59l-2.54-2.54a1,1,0,0,1-.29-.7,1,1,0,0,1,1-1,1,1,0,0,1,.7.29l4.25,4.24A1,1,0,0,1,22,16a1.05,1.05,0,0,1-.29.71L17.46,21a1,1,0,0,1-.32.22,1.07,1.07,0,0,1-.76,0A1,1,0,0,1,16.05,21Z" transform="translate(-4 -4)"/></svg>