<svg xmlns="http://www.w3.org/2000/svg" width="24" height="24" viewBox="0 0 24 24"><title>check-square-fill-icon</title><path d="M26,4H6A2,2,0,0,0,4,6V26a2,2,0,0,0,2,2H26a2,2,0,0,0,2-2V6a2,2,0,0,0-2-2Zm-3.81,9.72-7.33,7a1,1,0,0,1-.69.28,1,1,0,0,1-.69-.28l-3.67-3.5a1,1,0,0,1-.23-.32,1,1,0,0,1,0-.76.89.89,0,0,1,.21-.33,1,1,0,0,1,.32-.23,1,1,0,0,1,.76,0,1,1,0,0,1,.33.21l3,2.84,6.64-6.34a1,1,0,0,1,.33-.21,1,1,0,0,1,.76,0,1,1,0,0,1,.32.23.89.89,0,0,1,.21.33,1,1,0,0,1,0,.76,1,1,0,0,1-.23.32Z" transform="translate(-4 -4)"/></svg>