<svg xmlns="http://www.w3.org/2000/svg" width="22" height="26" viewBox="0 0 22 26"><title>file-arrow-down-icon</title><path d="M26.92,10.62a.93.93,0,0,0-.21-.33l-7-7-.08,0a1,1,0,0,0-.24-.16A1,1,0,0,0,19,3H7A2,2,0,0,0,5,5V27a2,2,0,0,0,2,2H25a2,2,0,0,0,.76-.15,2,2,0,0,0,.66-.44A2,2,0,0,0,27,27V11A1,1,0,0,0,26.92,10.62ZM20,6.41,23.59,10H20ZM7,27V5H18v6a1,1,0,0,0,1,1h6V27Z" transform="translate(-5 -3)"/><path d="M20.21,18.79a1,1,0,0,0-1.42,0L17,20.59V15a1,1,0,0,0-2,0v5.59l-1.79-1.8a1,1,0,0,0-1.42,1.42l3.5,3.5a1,1,0,0,0,.33.21.94.94,0,0,0,.76,0,1,1,0,0,0,.33-.21l3.5-3.5A1,1,0,0,0,20.21,18.79Z" transform="translate(-5 -3)"/></svg>