<svg xmlns="http://www.w3.org/2000/svg" width="26" height="26" viewBox="0 0 26 26"><title>globe-simple-icon</title><path d="M16,3A13,13,0,1,0,29,16,13,13,0,0,0,16,3ZM27,15H22c-.14-4-1.07-7.34-2.48-9.42A11,11,0,0,1,27,15ZM16,26.68c-1.78,0-3.76-4.08-4-9.68h8C19.76,22.6,17.78,26.68,16,26.68ZM12,15c.22-5.6,2.2-9.68,4-9.68S19.76,9.4,20,15Zm.48-9.42C11.09,7.66,10.16,11,10,15h-5A11,11,0,0,1,12.5,5.58ZM5.05,17h5c.14,4,1.07,7.34,2.48,9.42A11,11,0,0,1,5.05,17ZM19.5,26.42C20.91,24.34,21.84,21,22,17h5A11,11,0,0,1,19.5,26.42Z" transform="translate(-3 -3)"/></svg>