<svg xmlns="http://www.w3.org/2000/svg" width="24.41" height="29" viewBox="0 0 24.41 29"><title>hand-pointing-icon</title><path d="M23.5,10.5a3.47,3.47,0,0,0-1.83.52,3.57,3.57,0,0,0-.81-1.11,3.36,3.36,0,0,0-1.18-.7A3.44,3.44,0,0,0,18.33,9,3.63,3.63,0,0,0,17,9.34V4.5A3.52,3.52,0,0,0,13.5,1,3.5,3.5,0,0,0,10,4.5V15.93l-.88-1.52A3.5,3.5,0,0,0,3,17.87C7.1,26.42,9.8,30,16,30A11,11,0,0,0,27,19V14a3.52,3.52,0,0,0-3.5-3.5ZM25,19a9,9,0,0,1-9,9,7.57,7.57,0,0,1-5.87-2.28C8.57,24.15,7,21.62,4.83,17a.25.25,0,0,0,0-.07,1.5,1.5,0,0,1,.55-2.05,1.52,1.52,0,0,1,1.14-.15,1.49,1.49,0,0,1,.91.7l2.74,4.75a1,1,0,0,0,.49.42.94.94,0,0,0,.64,0,1,1,0,0,0,.53-.35,1,1,0,0,0,.21-.61V4.5a1.5,1.5,0,0,1,3,0V13a1,1,0,0,0,1,1,1.05,1.05,0,0,0,.71-.29A1,1,0,0,0,17,13v-.5a1.5,1.5,0,0,1,3,0V14a1,1,0,0,0,1,1,1.05,1.05,0,0,0,.71-.29A1,1,0,0,0,22,14a1.5,1.5,0,0,1,3,0Z" transform="translate(-2.59 -1)"/></svg>