<svg xmlns="http://www.w3.org/2000/svg" width="24" height="24.63" viewBox="0 0 24 24.63"><title>home-icon</title><path d="M26,28H20a2,2,0,0,1-2-2V20H14v6a2,2,0,0,1-2,2H6a2,2,0,0,1-.76-.15,1.83,1.83,0,0,1-.65-.44,1.88,1.88,0,0,1-.44-.64A2.07,2.07,0,0,1,4,26V14.44a2.06,2.06,0,0,1,.17-.81A2.11,2.11,0,0,1,4.65,13l10-9.09a2.06,2.06,0,0,1,2.7,0l10,9.09a2.16,2.16,0,0,1,.48.68,2,2,0,0,1,.17.8V26a2,2,0,0,1-.15.76,2.07,2.07,0,0,1-1.09,1.09A1.91,1.91,0,0,1,26,28Zm-7-2h7V14.44L16,5.35,6,14.44V26h6V20a2,2,0,0,1,2-2h4a2,2,0,0,1,2,2v6Z" transform="translate(-4 -3.37)"/></svg>