<svg xmlns="http://www.w3.org/2000/svg" width="26" height="23.99" viewBox="0 0 26 23.99"><title>map-trifold-icon</title><path d="M28.74,6.21A1,1,0,0,0,27.88,6L20.24,7.94,12.57,4.11A.72.72,0,0,0,12.3,4h-.06a1.15,1.15,0,0,0-.32,0h0l-8,2a1,1,0,0,0-.76,1V25a1,1,0,0,0,.39.79,1,1,0,0,0,.61.21,1,1,0,0,0,.25,0L12,24.06l7.67,3.83.05,0a1,1,0,0,0,.39.09h0a1,1,0,0,0,.24,0h0l8-2a1,1,0,0,0,.75-1V7A1,1,0,0,0,28.74,6.21ZM5.12,7.78l6-1.5V22.22l-6,1.5Zm14,17.6-6-3V6.62l6,3Zm8-1.16-6,1.5V9.78l6-1.5Z" transform="translate(-3.12 -4.01)"/></svg>