<svg xmlns="http://www.w3.org/2000/svg" viewBox="0 0 173 52"><path d="M49.42,42.55,57.89,25.4,44.54,0H13L26.67,25.77,13.64,52H44.69l4.65-9.38h-.07l0-.07Zm-23.11.39L34.9,25.65l-9.08-17,13.6-.18L48.54,25.5,39.87,42.76Z"/><path d="M6,25.77l6.76,13.61L9.64,45.17,0,25.77,9.48,8l3,5.46Z"/><path d="M82.9,27.23a13.46,13.46,0,0,1,5.86,1.28v1.68a11.28,11.28,0,0,0-5.63-1.4c-4.42,0-9,2.49-9,8.52,0,6.23,4.64,8.52,9.12,8.52a10.73,10.73,0,0,0,4.33-.89V36.78h1.68v9.3a14.92,14.92,0,0,1-6.14,1.31c-5.38,0-10.7-2.79-10.7-10.08C72.43,30.44,77.69,27.23,82.9,27.23Z"/><path d="M93.79,47.08V27.53h7.61c3.46,0,7.25,1.46,7.25,5.81,0,3.75-2.83,5.34-5.72,5.7l7,8h-2.09l-6.9-7.9H95.45v7.9Zm1.7-9.49h6c2.6,0,5.43-1,5.43-4.25s-2.83-4.21-5.43-4.21h-6Z"/><path d="M122.06,27.23c6.9,0,10.3,5.11,10.3,10.08s-3.4,10.08-10.3,10.08-10.3-5.11-10.3-10.09S115.15,27.23,122.06,27.23Zm0,1.56a8.19,8.19,0,0,0-8.61,8.52,8.61,8.61,0,0,0,17.21,0A8.19,8.19,0,0,0,122.06,28.79Z"/><path d="M152.46,27.53V40.1c0,5.45-3.71,7.29-8.1,7.29s-8.12-1.84-8.12-7.29V27.53h1.67V40.05c0,4.27,2.75,5.78,6.45,5.78s6.43-1.5,6.43-5.78V27.53Z"/><path d="M164.21,27.53c4.5,0,8.35,1.4,8.35,6.21S168.71,40,164.21,40h-4.84v7.12h-1.66V27.53Zm.09,1.61h-4.89v9.25h4.89c3.56,0,6.56-1,6.56-4.64s-3-4.62-6.56-4.62Z"/><path d="M79.17,4.18c4.1,0,7.23,1.32,7.23,5.62s-3.12,5.61-7.23,5.64H77v5.14H72.61V4.18Zm.21,3.75H77v3.76h2.39c1.33,0,2.52-.4,2.52-1.88s-1.18-1.87-2.51-1.87Z"/><path d="M85.35,20.58l6.52-16.4h4.74l6.52,16.4H98.62l-1-2.57H90.8l-1,2.57Zm6.76-6.09h4.27L94.67,9.77a8.08,8.08,0,0,1-.42-1.66,8.81,8.81,0,0,1-.43,1.66Z"/><path d="M104.72,20.58V4.18h4.38V10.4h2.09L115,4.18h4.86l-5.22,8,5.45,8.42H115.2l-4-6.32H109.1v6.32Z"/><path d="M125.85,4.18V16.72h7.59v3.86h-12V4.18Z"/><path d="M139.7,4.18v16.4h-4.39V4.18Z"/><path d="M142.83,20.58V4.18H147l6.5,9.41c-.07-.77-.09-1.8-.09-2.71V4.18h4.38v16.4h-4.15l-6.5-9.38c.08.77.1,1.8.1,2.69v6.69Z"/><path d="M172.86,4.18V7.94h-7.57v2.51h6.84v3.72h-6.84v2.67H173v3.74H160.9V4.18Z"/></svg>