<svg xmlns="http://www.w3.org/2000/svg" viewBox="0 0 29.75 24.29"><path d="M30.8,7a1,1,0,0,0-.5-.35,1.09,1.09,0,0,0-.62,0,14.91,14.91,0,0,1-3.79.76,6,6,0,0,0-6.64-2.27,6.08,6.08,0,0,0-3,2.1A6,6,0,0,0,15,10.7,15,15,0,0,1,9.55,8.4,14.86,14.86,0,0,1,5.42,4.17,1.09,1.09,0,0,0,5,3.8a1,1,0,0,0-.56-.07A1,1,0,0,0,3.91,4a1,1,0,0,0-.29.48,17,17,0,0,0,5.6,17.7,15,15,0,0,1-7,1.85,1,1,0,0,0-.6.21,1,1,0,0,0-.35.55,1,1,0,0,0,.05.64,1,1,0,0,0,.43.47A17,17,0,0,0,27,12.11a16.83,16.83,0,0,0,3.86-3.95A1,1,0,0,0,31,7.57,1,1,0,0,0,30.8,7Z" transform="translate(-1.25 -3.72)"/></svg>