<svg xmlns="http://www.w3.org/2000/svg" width="26.83" height="22.52" viewBox="0 0 26.83 22.52"><title>youtube-icon</title><path d="M28.83,8.34a3.85,3.85,0,0,0-3.22-3.08,88.85,88.85,0,0,0-19.22,0A3.85,3.85,0,0,0,3.16,8.35a50.7,50.7,0,0,0,0,15.31,3.85,3.85,0,0,0,3.22,3.08,90.71,90.71,0,0,0,9.61.52,90.71,90.71,0,0,0,9.61-.52h0a3.85,3.85,0,0,0,3.22-3.09A50.38,50.38,0,0,0,28.83,8.34Zm-8.28,8.49-6,4a1,1,0,0,1-.5.17,1,1,0,0,1-.52-.12.93.93,0,0,1-.39-.37A1,1,0,0,1,13,20V12a1,1,0,0,1,.14-.51.93.93,0,0,1,.39-.37,1,1,0,0,1,.52-.12,1,1,0,0,1,.5.17l6,4a1,1,0,0,1,.33.36,1,1,0,0,1,0,.94A1,1,0,0,1,20.55,16.83Z" transform="translate(-2.58 -4.74)"/></svg>